<?xml version="1.0" encoding="utf-8"?>
<!-- Generator: Adobe Illustrator 23.0.2, SVG Export Plug-In . SVG Version: 6.00 Build 0)  -->
<svg version="1.1" id="Capa_1" xmlns="http://www.w3.org/2000/svg" xmlns:xlink="http://www.w3.org/1999/xlink" x="0px" y="0px"
	 viewBox="0 0 400 120.5" style="enable-background:new 0 0 400 120.5;" xml:space="preserve">
<style type="text/css">
	.st0{fill:#FFFFFF;}
</style>
<title>CG_Design</title>
<g>
	<rect x="65.1" y="43.6" class="st0" width="16.6" height="16.6"/>
	<path class="st0" d="M98.9,60.3L98.9,60.3c0,18.5-15,33.5-33.5,33.5s-33.5-15-33.5-33.5c0-18.4,14.8-33.4,33.3-33.5V10.1
		C37.4,10.2,15,32.9,15.2,60.6c0.2,27.7,22.8,50.1,50.5,49.9c27.6-0.2,49.9-22.6,49.9-50.2H98.9z"/>
</g>
<g>
	<path class="st0" d="M374,75.1c0,6.4-5.2,11.6-11.6,11.5s-11.6-5.2-11.5-11.6c0-6.4,5.2-11.5,11.6-11.5
		C368.9,63.6,374,68.7,374,75.1C374,75.1,374,75.1,374,75.1 M362.5,56.8c-10.1,0-18.3,8.2-18.4,18.3c0,10.1,8.2,18.3,18.3,18.4
		c10.1,0,18.3-8.2,18.4-18.3c0,0,0,0,0,0C380.8,65,372.6,56.8,362.5,56.8"/>
	<path class="st0" d="M282.2,86.7c-6.4,0-11.6-5.2-11.6-11.6c0-6.4,5.2-11.6,11.6-11.6c6.4,0,11.6,5.2,11.6,11.6c0,0,0,0,0,0
		l3.4-3.4h-14.9v6.8h18.3v-3.4c0-10.1-8.2-18.3-18.3-18.3c-10.1,0-18.3,8.2-18.3,18.3c0,10.1,8.2,18.3,18.3,18.3V86.7z"/>
	<path class="st0" d="M233.9,93.3c10.1,0,18.3-8.2,18.3-18.3l-0.4,1.5l0.4-0.7V75c0-6.4,5.2-11.5,11.5-11.6v-6.8
		c-10.1,0-18.3,8.2-18.3,18.3l0.4-1.5l-0.4,0.7V75c0,6.4-5.2,11.6-11.6,11.6L233.9,93.3z"/>
	<path class="st0" d="M320,48l0.4,0.4l0.1,0c7.3,6.7,18.5,6.4,25.4-0.7l-4.8-4.7c-4.5,4.6-11.8,4.6-16.3,0.2c0,0,0,0,0,0l-0.4-0.4
		h-0.1c-7.3-6.7-18.5-6.4-25.4,0.7l4.8,4.7C308.1,43.6,315.4,43.6,320,48C319.9,48,320,48,320,48"/>
	<path class="st0" d="M322.4,56.7c-10.1,0-18.3,8.2-18.4,18.3v15h6.8V75c0-6.4,5.2-11.6,11.6-11.6c6.4,0,11.6,5.2,11.6,11.6v15h6.8
		V75C340.7,64.9,332.5,56.7,322.4,56.7"/>
	<path class="st0" d="M173.5,93.1c18.2,0,33.1-14.7,33.1-33c0-18.2-14.7-33.1-33-33.1h-33.1v33.1h6.8V30.5l-3.4,3.4h29.7
		c14.5,0.3,26,12.3,25.7,26.8c-0.3,14.1-11.7,25.5-25.8,25.7L173.5,93.1z"/>
	<path class="st0" d="M219.1,75.3V60.1h-6.8v15.2c0.2,10,8.3,18.1,18.3,18.1v-6.8C224.4,86.6,219.2,81.6,219.1,75.3"/>
	<path class="st0" d="M220.6,45c0-2.7-2.2-4.9-4.9-4.9s-4.9,2.2-4.9,4.9c0,2.7,2.2,4.9,4.9,4.9C218.4,49.9,220.6,47.7,220.6,45
		C220.6,45,220.6,45,220.6,45"/>
</g>
</svg>
