<?xml version="1.0" encoding="utf-8"?>
<!-- Generator: Adobe Illustrator 16.0.0, SVG Export Plug-In . SVG Version: 6.00 Build 0)  -->
<!DOCTYPE svg PUBLIC "-//W3C//DTD SVG 1.1//EN" "http://www.w3.org/Graphics/SVG/1.1/DTD/svg11.dtd">
<svg version="1.1" xmlns="http://www.w3.org/2000/svg" xmlns:xlink="http://www.w3.org/1999/xlink" x="0px" y="0px" width="612px"
	 height="792px" viewBox="0 0 612 792" enable-background="new 0 0 612 792" xml:space="preserve">
<g id="Layer_2">
	<rect x="21.623" y="0.993" fill="#449DBC" width="573.12" height="788.611"/>
</g>
<g id="Layer_1">
	<path fill="#C7EAFB" d="M203.144,793.03l250.096-2.151l46.264-136.768l19.468-148.86l-26.828-32.927l-90.236-45.114l-17.073-17.074
		l-56.09,52.436l-13.414,6.094l-21.948-29.265c0,0-14.637,13.416-13.414,17.073c1.217,3.66-85.361,52.436-85.361,52.436
		l-19.206,99.586L203.144,793.03z"/>
	<path fill="#DEF2F9" d="M311.164,471.03l-31.263,35.653c0,0-17.332-39.89,11.941-66.716L311.164,471.03z"/>
	<path fill="#BFE3EF" d="M229.666,687.694c0,0-46.95-150.433-36.018-169.506c10.932-19.075-25.307,96.36-25.307,96.36
		L229.666,687.694z"/>
	<polygon fill="#E2AC88" points="375.11,369.233 389.192,430.695 324.694,490.456 292.999,441.369 363.836,356.087 	"/>
	<polygon fill="#E2AC88" points="262.628,736.002 262.628,782.308 240.493,782.308 230.919,787.216 213.847,782.339 
		230.919,736.002 248.595,718.613 	"/>
	<polygon fill="#2B2016" points="402.259,350.113 383.947,405.848 361.27,362.319 370.674,318.073 402.412,328.524 	"/>
	<path fill="#F3BA91" d="M300.475,441.418l-15.905-0.114l-40.438-65.058l-9.668-77.331l0.095-13.633l91.011-15.257l31.396,58.174
		l12.54-5.591c0,0,15.743,22.837-0.305,42.04c-16.04,19.198-17.3,36.233-17.3,36.233L300.475,441.418z"/>
	<path fill="#2B2016" d="M389.914,328.435c0,0-52.327,8.743-68.007-23.213c-15.684-31.955,0.294-34.634-43.527-27.289
		c-43.821,7.349-39.789,53.982-38.933,60.84c0.857,6.852,19.939,33.47,13.334,51.388c0,0-16.454-34.423-30.048-40.203
		c-13.595-5.775-27.675-101.323,89.49-119.796c117.163-18.474,95.784,110.904,92.349,114.288
		C401.138,347.832,389.914,328.435,389.914,328.435z"/>
	<polygon fill="#2B2016" points="223.866,350.538 243.998,395.565 252.812,385.616 238.467,350.642 	"/>
	<path fill="#E2AC88" d="M142.817,552.937c0,0,30.993-28.114,37.039-43.315l7.694-8.724c0,0,20.202-13.81,20.659-17.467
		c0.456-3.659-6.254-4.906-10.061-7.559c-3.807-2.654-15.175,12.76-15.175,12.76l-40.156,1.82l-12.345,8.981v33.382L142.817,552.937
		z"/>
	<polygon fill="#DEF2F9" points="334.126,486.936 368.268,523.948 402.412,439.377 390.217,427.182 334.126,479.62 	"/>
	<polygon fill="#BFE3EF" points="479.088,659.281 455.565,791.159 351.916,791.216 445.581,670.659 	"/>
	<g>
		<path fill="none" stroke="#000000" stroke-width="2" stroke-miterlimit="10" d="M345.726,526.075
			c0,0-46.208,45.243-107.224,57.538c0,0-53.018-58.555-50.833-101.635c0,0,47.827-32.337,81.54-37.089l42.381,3.792"/>
		<path fill="none" stroke="#000000" stroke-width="2" stroke-miterlimit="10" d="M208.45,528.777l-6.054-0.545
			c0,0-6.771-41.47-12.63-47.635c-5.861-6.168,7.748,41.943,7.748,41.943l6.537,12.801L208.45,528.777z"/>
		<path fill="none" stroke="#000000" stroke-width="2" stroke-miterlimit="10" d="M207.354,541.066l6.602,0.59
			c0,0,1.553,12.18,2.474,13.52C217.35,556.516,207.354,541.066,207.354,541.066z"/>
		
			<line fill="none" stroke="#000000" stroke-width="2" stroke-miterlimit="10" x1="241.293" y1="577.204" x2="240.764" y2="583.138"/>
	</g>
	<path fill="#D7EFF8" d="M259.595,731.128v34.143l9.751,25.608l191.292-28.171l38.866-108.596l17.387-151.018l-26.828-32.92
		l-32.927-9.756l-12.191,112.261L408.36,691.765C408.36,691.765,336.422,733.57,259.595,731.128z"/>
	<path fill="#F3BA91" d="M127.274,642.109l-23.171-76.828l11.584-74.829v-14.58l43.291-7.533l35.362,4.879l7.316,12.802
		c0,0-4.878,13.413-17.072-6.703l-8.237,0.605c0,0,11.288,11.586,11.288,22.561c0,0-4.89,9.146-11.288-4.875L173,509.622h-1.829
		l-1.375,4.904l-0.914,5.029l-1.373,2.745c0,0-7.774-2.745-9.604-8.689c-1.829-5.947-9.143-10.061-10.974-14.177
		c-1.831-4.114-8.229,0.46-10.059,2.287c-1.831,1.829-1.831,22.41,4.114,27.893c5.945,5.489,6.403,11.435,5.487,21.038
		c-0.914,9.598,2.745,36.121,2.745,36.121s14.576,23.704,14.576,21.495s-25.093,33.842-25.093,33.842H127.274z"/>
	<polygon fill="#D7EFF8" points="158.029,604.49 126.326,636.319 121.446,620.403 103.155,636.319 189.733,781.426 212.898,776.552 
		247.645,712.821 162.848,600.268 	"/>
	<polygon fill="#D7EFF8" points="454.043,559.266 454.043,456.127 497.015,476.499 	"/>
	<polygon fill="#DEF2F9" points="402.412,439.377 407.56,430.037 384.545,410.41 390.217,427.182 384.545,435.001 396.053,444.888 	
		"/>
	<path fill="#2B2016" d="M216.49,301.264c0,0-21.15,40.031,25.626,90.093L216.49,301.264z"/>
	<path id="izotipo_11_" fill="#EFF8FE" d="M362.732,553.859l3.125-0.339l0.361,3.287l-3.126,0.341L362.732,553.859z
		 M369.469,556.491c0.402,3.659-2.098,6.939-5.575,7.32c-3.477,0.379-6.627-2.283-7.028-5.943c-0.398-3.644,2.065-6.918,5.54-7.316
		l-0.365-3.328c-5.238,0.592-8.965,5.551-8.328,11.047c0.636,5.476,5.377,9.451,10.577,8.844c5.187-0.608,8.901-5.506,8.303-10.969
		L369.469,556.491z"/>
	<path id="texto_11_" fill="#F7F7F7" d="M422.824,553.617c0.202,2.009-1.157,3.795-3.062,4.002c-1.907,0.192-3.622-1.259-3.84-3.264
		c-0.202-2.009,1.157-3.793,3.061-3.999C420.889,550.145,422.606,551.612,422.824,553.617z M421.551,553.739
		c-0.138-1.265-1.204-2.18-2.423-2.065c-1.199,0.131-2.078,1.242-1.941,2.525c0.122,1.262,1.203,2.181,2.425,2.063
		C420.817,556.149,421.691,555.02,421.551,553.739z M395.416,558.911c1.2-0.131,2.062-1.239,1.941-2.505
		c-0.003-0.02-0.022-0.203-0.031-0.28c-0.104-1.905,1.232-3.573,3.069-3.771l0.149,1.354c-1.182,0.146-2.046,1.239-1.928,2.484
		c0.004,0.019,0.022,0.188,0.027,0.241c0.102,1.907-1.231,3.596-3.067,3.794L395.416,558.911z M410.798,549.483L410.798,549.483
		 M410.798,549.483l0.078,0.066l0.017-0.002c1.522,1.168,3.615,0.883,4.769-0.652l-1.002-0.832
		c-0.747,1.001-2.124,1.155-3.066,0.374l-0.08-0.067l-0.019,0.006c-1.518-1.174-3.615-0.887-4.766,0.65l1.003,0.829
		C408.46,548.851,409.837,548.703,410.798,549.483z M411.447,551.158c-1.908,0.208-3.265,1.994-3.064,4.005l0.325,2.97l1.289-0.142
		l-0.326-2.968c-0.139-1.266,0.719-2.412,1.936-2.546c1.201-0.131,2.301,0.783,2.443,2.065l0.323,2.971l1.287-0.141l-0.323-2.97
		C415.066,552.417,413.333,550.951,411.447,551.158z M392.398,556.966l-0.328-3.007l-1.288,0.138l0.328,3.011
		c0.252,1.984,1.947,3.418,3.834,3.208l-0.148-1.355C393.652,559.105,392.555,558.225,392.398,556.966z M392.024,550.936
		c-0.058-0.539-0.512-0.923-1.025-0.864c-0.508,0.054-0.872,0.526-0.81,1.067c0.06,0.534,0.509,0.918,1.022,0.863
		C391.724,551.944,392.084,551.474,392.024,550.936z M403.896,552.008c-1.911,0.208-3.268,1.99-3.048,3.998
		c0.22,2.005,1.933,3.453,3.841,3.243l-0.146-1.318l-0.018,0.002c-1.201,0.132-2.3-0.785-2.438-2.063
		c-0.143-1.263,0.718-2.411,1.932-2.545c0.99-0.107,1.893,0.489,2.259,1.39l-2.063,0.225l0.151,1.373l3.444-0.376l-0.076-0.666
		C407.514,553.263,405.799,551.796,403.896,552.008z M382.792,548.335l-6.23,0.684l0.718,6.556l1.29-0.141l-0.568-5.18l0,0
		l4.942-0.545c2.741-0.242,5.155,1.903,5.416,4.788c0.253,2.792-1.652,5.292-4.295,5.619l0.144,1.321
		c3.424-0.374,5.913-3.599,5.514-7.224C389.327,550.609,386.234,547.959,382.792,548.335z"/>
</g>
</svg>
