<?xml version="1.0" encoding="utf-8"?>
<!-- Generator: Adobe Illustrator 16.0.0, SVG Export Plug-In . SVG Version: 6.00 Build 0)  -->
<!DOCTYPE svg PUBLIC "-//W3C//DTD SVG 1.1//EN" "http://www.w3.org/Graphics/SVG/1.1/DTD/svg11.dtd">
<svg version="1.1" xmlns="http://www.w3.org/2000/svg" xmlns:xlink="http://www.w3.org/1999/xlink" x="0px" y="0px" width="612px"
	 height="792px" viewBox="0 0 612 792" enable-background="new 0 0 612 792" xml:space="preserve">
<g id="Layer_2">
	<rect x="20.964" y="1.969" fill="#449DBC" width="572.722" height="788.063"/>
</g>
<g id="Layer_1">
	<polygon fill="#C7EAFB" points="327.068,715.728 383.42,754.606 375.54,769.541 314.422,780.082 	"/>
	<path fill="#FDCAA0" d="M383.107,300.617c3.277,1.095-25.169,53.614,10.938,79.872c36.105,26.261-73.132,36.773-91.733,40.886
		l-3.456-89.027L383.107,300.617z"/>
	<polygon fill="#C7EAFB" points="389.557,353.146 480.843,423.628 369.272,760.594 347.294,753.83 319.688,789.893 194.524,789.893 
		167.544,740.308 206.614,550.227 215.255,444.666 295.884,360.518 304.605,416.865 	"/>
	<polygon fill="#66211C" points="261.653,215.273 281.348,300.617 261.653,306.157 248.523,237.431 	"/>
	<polygon fill="#401A1E" points="395.672,274.91 377.514,323.824 364.617,318.063 356.791,286.68 	"/>
	<path fill="#FED3AB" d="M363.411,311.559l-48.146,32.823h-19.696l-22.972-16.41l-16.415-86.442c0,0,17.509-97.378,100.661-30.637
		l2.19,39.391c0,0,28.449-6.562,16.412,31.73l-3.281,9.847h-7.661L363.411,311.559z"/>
	<polygon fill="#99DBF7" points="316.619,394.325 377.734,337.975 391.849,350.893 400.994,358.26 326.392,421.375 	"/>
	<polygon fill="#99DBF7" points="304.605,397.491 283.622,412.218 299.439,353.146 	"/>
	<polygon fill="#D7EFF8" points="398.7,360.518 480.843,423.628 480.843,641.135 383.42,789.893 347.294,765.101 405.298,633.243 
		398.7,493.499 425.623,451.802 474.085,429.261 393.32,365.067 	"/>
	<path fill="#B7E4F1" d="M299.439,353.146l-46.223,19.769l-22.561,24.789l-18.406,49.588l-10.521,121.341
		c0,0-37.567,161.53-38.691,164.912c-1.127,3.379,11.27,6.762,11.27,6.762l42.823-193.581c0,0-23.618-65.627,19.184-110.703
		C279.115,390.945,299.439,353.146,299.439,353.146z"/>
	<polygon fill="#C7EAFB" points="299.439,353.146 267.171,366.945 236.314,436.024 280.243,396.581 299.439,356.386 	"/>
	<polygon fill="#99DBF7" points="304.605,416.865 315.812,394.789 327.068,400.95 	"/>
	<polygon fill="#99DBF7" points="304.605,394.7 304.605,416.865 299.439,401.119 	"/>
	<polygon fill="#FED3AB" points="347.294,765.101 375.54,780.082 383.42,789.893 319.688,789.893 324.195,769.541 	"/>
	<path fill="#663D3B" d="M279.161,210.737c0,0,52.518-24.821,77.63,19.505c0,0,11.586-34.561,12.337-32.305
		c0.752,2.253-57.853-23.292-57.853-23.292l-32.114,19.533V210.737z"/>
	<path fill="#66211C" d="M279.161,210.737c0,0,17.47-48.143,68.912,0c0,0-6.548,41.178,13.148,57.242l12.034,16.068
		c0,0-3.281,14.225-18.6,18.599c0,0,59.079-5.872,60.178-34.667c1.094-28.792-36.56-142.584-130.432-85.689
		c0,0-76.361,17.506-30.41,120.355l15.835,10.746l-1.949-10.276l-7.056-37.165l-4.641-24.42
		C256.182,241.531,258.373,212.928,279.161,210.737z"/>
	<path id="izotipo_10_" fill="#EFF8FE" d="M326.521,459.816l3.282,1.164l-1.227,3.459l-3.282-1.165L326.521,459.816z
		 M331.979,465.694c-1.365,3.848-5.445,5.914-9.1,4.621c-3.655-1.299-5.516-5.48-4.15-9.328c1.36-3.833,5.401-5.915,9.067-4.636
		l1.237-3.496c-5.519-1.937-11.63,1.212-13.645,7.013c-2.011,5.774,0.804,12.026,6.292,13.934c5.468,1.9,11.541-1.204,13.579-6.943
		L331.979,465.694z"/>
	<path id="texto_10_" fill="#F7F7F7" d="M386.635,488.577c-0.77,2.102-2.984,3.229-4.988,2.517c-1.997-0.729-3.01-3.003-2.264-5.112
		c0.772-2.106,2.987-3.23,4.99-2.517C386.381,484.177,387.383,486.469,386.635,488.577z M385.303,488.082
		c0.475-1.326-0.147-2.756-1.418-3.231c-1.264-0.448-2.674,0.239-3.155,1.585c-0.489,1.326,0.149,2.761,1.422,3.233
		C383.405,490.138,384.829,489.429,385.303,488.082z M356.717,480.635c1.26,0.448,2.655-0.245,3.145-1.564
		c0.008-0.021,0.077-0.214,0.105-0.296c0.818-1.95,2.957-2.976,4.887-2.288l-0.505,1.424c-1.252-0.418-2.64,0.253-3.123,1.553
		c-0.007,0.024-0.067,0.196-0.089,0.257c-0.818,1.954-2.964,2.992-4.896,2.309L356.717,480.635z M376.625,478.644L376.625,478.644
		 M376.625,478.644l0.042,0.104l0.021,0.004c0.957,1.905,3.183,2.627,5.078,1.65l-0.602-1.312c-1.229,0.642-2.675,0.127-3.241-1.106
		l-0.048-0.104l-0.019-0.004c-0.954-1.899-3.184-2.631-5.076-1.654l0.602,1.316C374.593,476.889,376.039,477.4,376.625,478.644z
		 M376.461,480.631c-2.008-0.712-4.221,0.415-4.989,2.521l-1.108,3.119l1.353,0.484l1.11-3.125c0.469-1.33,1.883-2.058,3.159-1.603
		c1.263,0.442,1.921,1.89,1.443,3.239l-1.106,3.123l1.353,0.477l1.106-3.118C379.47,483.633,378.444,481.333,376.461,480.631z
		 M354.64,477.237l1.124-3.167l-1.353-0.481l-1.122,3.167c-0.704,2.1,0.294,4.349,2.282,5.057l0.501-1.428
		C354.862,479.975,354.187,478.575,354.64,477.237z M357.175,471.033c0.205-0.562-0.064-1.168-0.604-1.357
		c-0.534-0.19-1.124,0.106-1.323,0.674c-0.2,0.564,0.065,1.164,0.604,1.356C356.392,471.895,356.979,471.599,357.175,471.033z
		 M368.512,477.831c-2.003-0.714-4.222,0.415-4.973,2.523c-0.745,2.11,0.264,4.383,2.27,5.095l0.491-1.386l-0.017-0.008
		c-1.264-0.448-1.918-1.891-1.443-3.239c0.473-1.327,1.885-2.06,3.162-1.605c1.037,0.371,1.653,1.398,1.585,2.474l-2.171-0.768
		l-0.514,1.444l3.619,1.288l0.251-0.704C371.52,480.834,370.518,478.543,368.512,477.831z M349.213,463.984l-6.548-2.326
		l-2.445,6.89l1.351,0.488l1.935-5.452l0,0l5.195,1.84c2.855,1.084,4.229,4.388,3.101,7.393c-1.096,2.91-4.201,4.494-7.002,3.541
		l-0.489,1.389c3.596,1.278,7.636-0.744,8.986-4.552C354.64,469.405,352.829,465.27,349.213,463.984z"/>
</g>
</svg>
