<?xml version="1.0" encoding="utf-8"?>
<!-- Generator: Adobe Illustrator 16.0.0, SVG Export Plug-In . SVG Version: 6.00 Build 0)  -->
<!DOCTYPE svg PUBLIC "-//W3C//DTD SVG 1.1//EN" "http://www.w3.org/Graphics/SVG/1.1/DTD/svg11.dtd">
<svg version="1.1" xmlns="http://www.w3.org/2000/svg" xmlns:xlink="http://www.w3.org/1999/xlink" x="0px" y="0px" width="612px"
	 height="792px" viewBox="0 0 612 792" enable-background="new 0 0 612 792" xml:space="preserve">
<g id="Layer_2">
	<rect x="21.16" y="2.79" fill="#449DBC" width="571.528" height="786.421"/>
</g>
<g id="Layer_1">
	<polygon fill="#AAE0F5" points="221.379,550.096 212.708,641.639 162.659,627.419 172.25,538.305 	"/>
	<polygon fill="#AAE0F5" points="162.659,786.932 412.375,786.932 406.836,709.637 182.631,748.288 	"/>
	<polygon fill="#D09761" points="348.85,256.572 348.85,336.479 308.701,399.01 261.151,360.799 250.745,272.207 	"/>
	<g>
		<g>
			<path fill="#DEA266" d="M346.597,184.83c0,28.771,0,57.538,0,85.285"/>
		</g>
		<g>
			<path fill="#DEA266" d="M346.597,270.115c-3.192,14.736-31.917,46.322-48.938,47.374c-17.023,1.055-45.745-29.474-53.192-43.168"
				/>
		</g>
		<g>
			<path fill="#DEA266" d="M244.467,185.882c0,29.456,0,58.915,0,87.393"/>
		</g>
		<g>
			<path fill="#DEA266" d="M346.597,184.83c-7.37-21.06-34.749-21.055-53.698-23.163c-25.27-1.054-34.745,1.052-48.432,24.215"/>
		</g>
		<rect x="244.467" y="184.83" fill="#DEA266" width="102.13" height="89.491"/>
	</g>
	<g>
		<path fill="#070605" d="M240.16,247.393l6.949-44.959c0,0,2.188-28.509,16.081-13.157c13.889,15.354,54.097,17.547,64.334,13.892
			c10.232-3.656,10.962-8.045,15.35,6.579c4.388,14.62,6.584,37.646,6.584,37.646h2.923v-62.653c0,0-47.522-78.377-112.222,0v37.438
			V247.393z"/>
	</g>
	<g>
		<path fill="#DEA266" d="M245.832,227.175c-20.355-18.249-16.143,42.115,4.913,28.079"/>
	</g>
	<g>
		<path fill="#DEA266" d="M342.419,227.175c20.357-18.249,16.148,42.115-4.911,28.079"/>
	</g>
	<path fill="#AAE0F5" d="M351.506,307.396l93.587,35.528l50.689,62.853l63.68,146.217l5.201,16.406l-88.378,161.242l-18.199-42.361
		v-8.202l35.097-118.882L430.8,465.904c0,0-16.897,66.957-16.897,71.058c0,4.102-7.798,159.881-7.798,159.881l3.901,68.327H182.562
		c0,0,1.303-308.832,0-322.495c-1.296-13.664,0-35.528,0-35.528l-33.788-5.466l-20.792,30.064v35.529l-42.89,15.032l-24.694-28.698
		v-17.766l33.791-40.991l15.593-4.1l55.885-62.862l88.009-25.96l49.754,76.523L351.506,307.396z"/>
	<polygon fill="#C7EAFB" points="351.506,307.396 305.18,375.87 345.028,382.646 	"/>
	<polyline fill="#C7EAFB" points="254.365,375.87 253.611,298.581 297.737,367.894 	"/>
	<polygon fill="#DEA266" points="236.238,430.471 172.25,457.383 172.25,420.069 236.238,420.069 	"/>
	<polygon fill="#DEA266" points="483.394,593.355 515.684,593.355 537.521,617.914 483.394,716.675 452.936,688.565 	"/>
	<polygon fill="#AAE0F5" points="429.916,469.418 493.183,560.196 479.266,593.355 483.394,593.355 515.684,593.355 
		537.521,617.914 541.696,617.914 564.663,568.399 	"/>
	<g>
		<path fill="#21223A" d="M84.325,455.993c0,0,35.925-3.616,37.049,40.967c0,0-3.37,34.948-18.527,40.975
			c0,0-38.731,7.154-40.975-41.006C61.873,496.929,57.38,470.451,84.325,455.993z"/>
		<path fill="#151724" d="M83.185,458.612l114.189-3.893c0,0,54.011,33.285,0,73.695l-99.338,11.094c0,0,15.236-3.962,19.096-40.413
			C117.132,499.096,120.218,464.089,83.185,458.612z"/>
		<path fill="#151724" d="M260.067,449.518c0,0,11.148,10.404,11.148,17.837c0,7.429,4.46,7.429,4.46,7.429v45.733
			c0,0,0,8.523-7.802,12.241c-7.806,3.717-31.588,5.202-31.588,5.202l-40.875,0.345h-45.667v-6.027l43.436-4.725
			c0,0,54.255-33.442,0-69.116h-31.215l-1.488-8.919l0.748-14.864l20.808,5.948l1.487-5.948l46.077-6.563L260.067,449.518z"/>
		<path fill="#151724" d="M154.533,786.932h36.417v-66.143l-7.432-8.92l2.229-24.527l5.203,3.717v10.407l8.918,2.228l7.431,11.892
			l-8.173,4.459c0,0,4.457,6.688,8.173,8.176c3.718,1.487,23.785,58.712,23.785,58.712h35.672l-33.444-80.265l-17.012-32.7v-5.947
			l5.121-4.46l-5.121-8.176h-23.864l8.174-6.687l0.745-13.378h-6.688l-6.688-2.973h-5.206h-23.78l-4.459,5.943v10.407l3.712,4.456
			l-3.712,4.463l-13.379,2.229l-2.972,8.916c0,0-3.718-12.634-26.756,40.875l-33.446,77.295h37.905l22.297-51.277l0.743-8.18
			l10.818-2.971l8.503-26.013L154.533,786.932z"/>
		<path fill="#151724" d="M158.863,628.631l-2.972-16.032l-5.532-9.233l-7.846-20.07v-31.889l11.148-3.787l-3.303-9.314
			l121.454-7.803v17.858l-88.423,3.046v8.107l-15.608,20.054c0,0,14.121-2.218,22.297,8.185l17.083,2.231l75.075,38.647
			c0,0,4.458,15.605-9.663,12.634l-69.86-34.931l-11.149,1.488l-1.487,4.776h6.688v12.314l-5.201,0.745l3.716,9.661l-35.672,6.319
			l-4.459-3.349L158.863,628.631z"/>
		<path fill="#383838" d="M111.498,519.08c0,0-30.796-21.572-15.989-59.603C95.509,459.478,129.141,468.095,111.498,519.08z"/>
	</g>
	<path fill="#DEA266" d="M150.753,402.24c0,0,29.44,4.67,78.976,0c0,0,10.749-1.663,22.431,1.04
		c11.685,2.696,55.61,21.391,55.61,21.391l21.965,35.52l-6.544,18.692c0,0-1.867,3.269-5.607,2.801
		c-3.738-0.466-5.788,9.814-13.875,6.075c0,0-2.015,3.51-7.154,0.82l-5.607,3.386c0,0-9.812-0.934-6.542-9.345l0.468-11.218
		l-6.076-11.681l-11.684-5.144c0,0-24.767-9.345-33.646-21.027c0,0-12.153-5.143-29.442,2.337c0,0-26.641,18.227-31.777,21.495
		l-43.929,12.152v-38.321C128.32,431.214,138.136,408.784,150.753,402.24z"/>
	<path fill="#DEA266" d="M435.352,725.833l18.895-40.046l37.833,16.659l-31.952,48.963c0,0-7.889,24.959-41.98,15.609l-11.53,2.084
		l-15.98,7.449c0,0-15.76,4.903-11.579-4.227l15.061-9.064l10.832-6.243l7.494-2.213l-14.082,0.165l-23.875,9.688
		c0,0-15.095-2.71-8.61-7.799c0,0-11.993,1.272-5.894-9.255l24.823-13.353l14.422-1.026l-11.438-2.327l-18.816,7.229
		c0,0-11.991,1.272-10.154-6.848l24.5-12.261l21.341,5.633l20.637,4.839L435.352,725.833z"/>
	<polygon fill="#151724" points="121.375,457.31 182.89,455.925 149.742,475.807 121.375,465.864 	"/>
	<path id="izotipo_12_" fill="#EFF8FE" d="M344.563,446.024l3.495,0.038l-0.04,3.68l-3.495-0.037L344.563,446.024z M351.651,449.825
		c-0.046,4.095-3.243,7.383-7.133,7.342c-3.89-0.047-7.012-3.405-6.966-7.503c0.046-4.071,3.201-7.361,7.092-7.338l0.041-3.725
		c-5.863-0.043-10.639,4.937-10.669,11.086c-0.028,6.133,4.674,11.154,10.499,11.178c5.807,0.025,10.561-4.889,10.629-11.002
		L351.651,449.825z"/>
	<path id="texto_12_" fill="#F7F7F7" d="M410.946,453.772c-0.042,2.246-1.783,4.033-3.914,4.009
		c-2.134-0.041-3.831-1.87-3.806-4.114c0.045-2.247,1.783-4.034,3.915-4.008C409.275,449.682,410.972,451.528,410.946,453.772z
		 M409.525,453.738c0.016-1.411-1.037-2.57-2.399-2.606c-1.345-0.017-2.462,1.097-2.477,2.535c-0.037,1.411,1.037,2.563,2.399,2.603
		C408.391,456.304,409.507,455.17,409.525,453.738z M379.978,455.963c1.345,0.017,2.441-1.097,2.476-2.509
		c0.002-0.021,0.004-0.228,0.004-0.31c0.144-2.12,1.841-3.786,3.893-3.762l-0.016,1.517c-1.324,0.005-2.423,1.097-2.458,2.488
		c-0.002,0.021-0.003,0.21-0.003,0.27c-0.143,2.118-1.84,3.805-3.893,3.782L379.978,455.963z M398.22,447.604L398.22,447.604
		 M398.22,447.604l0.079,0.086h0.017c1.523,1.49,3.874,1.454,5.354-0.086l-0.996-1.054c-0.958,1.011-2.499,0.989-3.435,0.006
		l-0.08-0.087h-0.021c-1.522-1.491-3.873-1.455-5.35,0.087l0.994,1.048C395.723,446.6,397.262,446.615,398.22,447.604z
		 M398.713,449.544c-2.135-0.024-3.873,1.761-3.918,4.007l-0.038,3.326l1.444,0.016l0.036-3.325
		c0.016-1.413,1.117-2.563,2.478-2.549c1.342,0.014,2.436,1.172,2.419,2.605l-0.038,3.325l1.44,0.015l0.039-3.323
		C402.54,451.415,400.824,449.563,398.713,449.544z M376.906,453.413l0.038-3.37l-1.441-0.014l-0.037,3.364
		c0.013,2.227,1.691,4.038,3.804,4.058l0.017-1.514C378.003,455.942,376.911,454.828,376.906,453.413z M377.296,446.703
		c0.008-0.602-0.44-1.086-1.014-1.091c-0.572-0.007-1.032,0.466-1.039,1.065c-0.007,0.605,0.443,1.088,1.015,1.093
		C376.833,447.777,377.291,447.305,377.296,446.703z M390.26,449.468c-2.133-0.026-3.871,1.765-3.895,4.007
		c-0.027,2.247,1.67,4.076,3.803,4.102l0.017-1.479h-0.019c-1.345-0.012-2.436-1.17-2.42-2.605c0.016-1.41,1.115-2.562,2.477-2.547
		c1.104,0.01,2.025,0.791,2.309,1.836l-2.309-0.028l-0.017,1.535l3.851,0.045l0.008-0.745
		C394.092,451.342,392.393,449.492,390.26,449.468z M367.45,442.601l-6.97-0.08l-0.083,7.341l1.442,0.015l0.064-5.8l0,0l5.53,0.062
		c3.06,0.1,5.438,2.788,5.343,6.005c-0.094,3.117-2.531,5.628-5.496,5.636l-0.016,1.479c3.832,0.04,7.009-3.187,7.052-7.238
		C374.363,445.984,371.3,442.645,367.45,442.601z"/>
</g>
</svg>
